<?xml version="1.0" encoding="UTF-8" standalone="no"?>
<svg width="1000" height="1000" viewBox="0 0 1000 1000" fill="none" xmlns="http://www.w3.org/2000/svg">
  <circle cx="500" cy="500" r="400" fill="#2F855A"/>
  <g transform="translate(200, 200) scale(0.6)">
    <path d="M500 200C350 200 200 350 200 500C200 650 350 800 500 800C650 800 800 650 800 500C800 350 650 200 500 200ZM500 750C350 750 250 650 250 500C250 350 350 250 500 250C650 250 750 350 750 500C750 650 650 750 500 750Z" fill="white"/>
    <path d="M500 300C400 300 300 400 300 500C300 600 400 700 500 700C600 700 700 600 700 500C700 400 600 300 500 300ZM500 650C400 650 350 600 350 500C350 400 400 350 500 350C600 350 650 400 650 500C650 600 600 650 500 650Z" fill="white"/>
    <path d="M500 400C450 400 400 450 400 500C400 550 450 600 500 600C550 600 600 550 600 500C600 450 550 400 500 400Z" fill="white"/>
  </g>
</svg>